<?xml version="1.0" encoding="UTF-8" standalone="no"?>
<!DOCTYPE svg PUBLIC "-//W3C//DTD SVG 1.1//EN" "http://www.w3.org/Graphics/SVG/1.1/DTD/svg11.dtd">
<svg width="100%" height="100%" viewBox="0 0 512 512" version="1.1" xmlns="http://www.w3.org/2000/svg" xmlns:xlink="http://www.w3.org/1999/xlink" xml:space="preserve" xmlns:serif="http://www.serif.com/" style="fill-rule:evenodd;clip-rule:evenodd;stroke-linejoin:round;stroke-miterlimit:1.5;">
    <g id="Frame" transform="matrix(0.812692,0,0,0.812692,-350.368,-128.172)">
        <path d="M692.332,540L591.233,540C571.864,540 556.138,524.274 556.138,504.905L556.138,355.749C556.138,336.379 571.864,320.654 591.233,320.654L692.911,320.654M812.083,320.654L901.013,320.654C920.382,320.654 936.108,336.379 936.108,355.749L936.108,504.905C936.108,524.274 920.382,540 901.013,540L809.717,540" style="fill:none;stroke:white;stroke-width:8.22px;"/>
    </g>
    <g id="Lens" transform="matrix(0.868322,0,0,0.995073,-573.185,-321.241)">
        <path d="M1064.17,504.167C1063.37,504.167 1062.65,503.741 1062.35,503.093C1054.81,486.768 1042.16,473.51 1024.41,463.317C1006.27,452.901 984.804,447.693 960,447.693C939.408,447.693 920.688,451.659 903.84,459.59C886.992,467.521 873.713,478.892 864.002,493.703C854.291,508.514 849.435,525.762 849.435,545.447C849.435,565.131 854.291,582.379 864.002,597.19C873.713,612.001 886.992,623.372 903.84,631.303C920.688,639.235 939.408,643.2 960,643.2C980.124,643.2 998.552,639.378 1015.28,631.733C1032.01,624.089 1045.41,613.052 1055.47,598.623C1065.53,584.195 1070.8,567.424 1071.27,548.313L957.69,548.313C956.906,548.313 956.155,548.042 955.601,547.558C955.046,547.074 954.735,546.419 954.735,545.735C954.735,545.734 954.735,545.733 954.735,545.732C954.735,544.308 956.058,543.153 957.69,543.153C976.429,543.153 1077.94,543.153 1077.94,543.153L1077.94,545.447C1077.94,565.322 1072.9,583.096 1062.84,598.767C1052.78,614.438 1038.8,626.621 1020.9,635.317C1003,644.012 982.698,648.36 960,648.36C937.302,648.36 917.003,644.012 899.102,635.317C881.201,626.621 867.219,614.438 857.157,598.767C847.095,583.096 842.064,565.322 842.064,545.447C842.064,525.571 847.095,507.798 857.157,492.127C867.219,476.455 881.201,464.272 899.102,455.577C917.003,446.881 937.302,442.533 960,442.533C986.676,442.533 1009.49,448.075 1028.44,459.16C1045.95,469.4 1059.07,482.984 1067.8,499.912C1068.27,500.847 1068.17,501.927 1067.53,502.784C1066.89,503.641 1065.8,504.157 1064.63,504.157C1064.47,504.167 1064.32,504.167 1064.17,504.167Z" style="fill:white;fill-rule:nonzero;"/>
    </g>
    <g id="Button" transform="matrix(0.812692,0,0,0.812692,-521.496,-217.303)">
        <path d="M806.482,413.95L855.161,413.95" style="fill:none;stroke:white;stroke-width:8.22px;stroke-linecap:round;"/>
    </g>
    <g id="Text" transform="matrix(0.812692,0,0,0.812692,-572.724,-181.452)">
        <g transform="matrix(70,0,0,70,790.442,706.224)">
            <path d="M0.605,-0.495C0.586,-0.536 0.558,-0.567 0.521,-0.59C0.484,-0.612 0.442,-0.623 0.393,-0.623C0.344,-0.623 0.301,-0.612 0.262,-0.59C0.223,-0.567 0.192,-0.535 0.17,-0.494C0.147,-0.452 0.136,-0.404 0.136,-0.349C0.136,-0.294 0.147,-0.246 0.17,-0.205C0.192,-0.164 0.223,-0.132 0.262,-0.11C0.301,-0.087 0.344,-0.076 0.393,-0.076C0.461,-0.076 0.517,-0.096 0.561,-0.137C0.605,-0.178 0.631,-0.233 0.638,-0.302L0.36,-0.302L0.36,-0.376L0.735,-0.376L0.735,-0.306C0.73,-0.249 0.712,-0.196 0.681,-0.149C0.65,-0.101 0.61,-0.063 0.56,-0.035C0.51,-0.008 0.454,0.006 0.393,0.006C0.328,0.006 0.269,-0.009 0.216,-0.04C0.163,-0.07 0.121,-0.112 0.09,-0.166C0.059,-0.22 0.043,-0.281 0.043,-0.349C0.043,-0.417 0.059,-0.478 0.09,-0.533C0.121,-0.587 0.163,-0.629 0.216,-0.66C0.269,-0.69 0.328,-0.705 0.393,-0.705C0.467,-0.705 0.533,-0.687 0.59,-0.65C0.647,-0.613 0.688,-0.562 0.714,-0.495L0.605,-0.495Z" style="fill:white;fill-rule:nonzero;"/>
        </g>
        <g transform="matrix(70,0,0,70,858.902,706.224)">
            <path d="M0.444,-0L0.278,-0.285L0.168,-0.285L0.168,-0L0.077,-0L0.077,-0.697L0.302,-0.697C0.355,-0.697 0.399,-0.688 0.436,-0.67C0.472,-0.652 0.499,-0.628 0.517,-0.597C0.535,-0.566 0.544,-0.531 0.544,-0.492C0.544,-0.444 0.53,-0.402 0.502,-0.365C0.475,-0.328 0.433,-0.304 0.378,-0.292L0.553,-0L0.444,-0ZM0.168,-0.358L0.302,-0.358C0.351,-0.358 0.388,-0.37 0.413,-0.395C0.438,-0.419 0.45,-0.451 0.45,-0.492C0.45,-0.533 0.438,-0.565 0.413,-0.588C0.389,-0.611 0.352,-0.622 0.302,-0.622L0.168,-0.622L0.168,-0.358Z" style="fill:white;fill-rule:nonzero;"/>
        </g>
        <g transform="matrix(70,0,0,70,915.462,706.224)">
            <path d="M0.489,-0.155L0.185,-0.155L0.129,-0L0.033,-0L0.285,-0.693L0.39,-0.693L0.641,-0L0.545,-0L0.489,-0.155ZM0.463,-0.229L0.337,-0.581L0.211,-0.229L0.463,-0.229Z" style="fill:white;fill-rule:nonzero;"/>
        </g>
        <g transform="matrix(70,0,0,70,976.642,706.224)">
            <path d="M0.426,-0.359C0.451,-0.355 0.474,-0.345 0.496,-0.328C0.517,-0.311 0.533,-0.291 0.546,-0.266C0.558,-0.241 0.564,-0.215 0.564,-0.187C0.564,-0.152 0.555,-0.12 0.537,-0.092C0.519,-0.063 0.493,-0.041 0.459,-0.025C0.424,-0.008 0.384,-0 0.337,-0L0.077,-0L0.077,-0.697L0.327,-0.697C0.374,-0.697 0.415,-0.689 0.448,-0.674C0.481,-0.658 0.506,-0.637 0.523,-0.61C0.54,-0.583 0.548,-0.553 0.548,-0.52C0.548,-0.479 0.537,-0.445 0.515,-0.418C0.492,-0.391 0.463,-0.371 0.426,-0.359ZM0.168,-0.396L0.321,-0.396C0.364,-0.396 0.397,-0.406 0.42,-0.426C0.443,-0.446 0.455,-0.474 0.455,-0.509C0.455,-0.544 0.443,-0.572 0.42,-0.592C0.397,-0.612 0.363,-0.622 0.319,-0.622L0.168,-0.622L0.168,-0.396ZM0.329,-0.075C0.374,-0.075 0.41,-0.086 0.435,-0.107C0.46,-0.128 0.473,-0.158 0.473,-0.196C0.473,-0.235 0.46,-0.265 0.433,-0.288C0.406,-0.31 0.371,-0.321 0.326,-0.321L0.168,-0.321L0.168,-0.075L0.329,-0.075Z" style="fill:white;fill-rule:nonzero;"/>
        </g>
        <g transform="matrix(70,0,0,70,1033.55,706.224)">
            <path d="M0.489,-0.155L0.185,-0.155L0.129,-0L0.033,-0L0.285,-0.693L0.39,-0.693L0.641,-0L0.545,-0L0.489,-0.155ZM0.463,-0.229L0.337,-0.581L0.211,-0.229L0.463,-0.229Z" style="fill:white;fill-rule:nonzero;"/>
        </g>
        <g transform="matrix(70,0,0,70,1094.73,706.224)">
            <path d="M0.043,-0.349C0.043,-0.417 0.058,-0.478 0.089,-0.533C0.12,-0.587 0.162,-0.629 0.215,-0.66C0.268,-0.691 0.326,-0.706 0.391,-0.706C0.467,-0.706 0.533,-0.688 0.59,-0.651C0.647,-0.614 0.688,-0.562 0.714,-0.495L0.605,-0.495C0.586,-0.537 0.558,-0.569 0.522,-0.592C0.485,-0.615 0.442,-0.626 0.391,-0.626C0.342,-0.626 0.299,-0.615 0.26,-0.592C0.221,-0.569 0.191,-0.537 0.169,-0.496C0.147,-0.454 0.136,-0.405 0.136,-0.349C0.136,-0.294 0.147,-0.245 0.169,-0.203C0.191,-0.162 0.221,-0.13 0.26,-0.107C0.299,-0.084 0.342,-0.073 0.391,-0.073C0.442,-0.073 0.485,-0.084 0.522,-0.107C0.558,-0.129 0.586,-0.161 0.605,-0.203L0.714,-0.203C0.688,-0.136 0.647,-0.085 0.59,-0.049C0.533,-0.012 0.467,0.006 0.391,0.006C0.326,0.006 0.268,-0.009 0.215,-0.04C0.162,-0.07 0.12,-0.112 0.089,-0.166C0.058,-0.22 0.043,-0.281 0.043,-0.349Z" style="fill:white;fill-rule:nonzero;"/>
        </g>
        <g transform="matrix(70,0,0,70,1162.77,706.224)">
            <rect x="0.077" y="-0.697" width="0.091" height="0.697" style="fill:white;fill-rule:nonzero;"/>
        </g>
        <g transform="matrix(70,0,0,70,1193.99,706.224)">
            <path d="M0.393,0.007C0.328,0.007 0.269,-0.008 0.216,-0.039C0.163,-0.069 0.121,-0.111 0.09,-0.166C0.059,-0.22 0.043,-0.281 0.043,-0.349C0.043,-0.417 0.059,-0.478 0.09,-0.533C0.121,-0.587 0.163,-0.629 0.216,-0.66C0.269,-0.69 0.328,-0.705 0.393,-0.705C0.458,-0.705 0.518,-0.69 0.571,-0.66C0.624,-0.629 0.666,-0.587 0.697,-0.533C0.728,-0.479 0.743,-0.418 0.743,-0.349C0.743,-0.28 0.728,-0.219 0.697,-0.165C0.666,-0.111 0.624,-0.069 0.571,-0.039C0.518,-0.008 0.458,0.007 0.393,0.007ZM0.393,-0.072C0.442,-0.072 0.486,-0.083 0.525,-0.106C0.564,-0.129 0.594,-0.161 0.617,-0.203C0.639,-0.245 0.65,-0.294 0.65,-0.349C0.65,-0.405 0.639,-0.454 0.617,-0.496C0.594,-0.537 0.564,-0.569 0.525,-0.592C0.486,-0.615 0.442,-0.626 0.393,-0.626C0.344,-0.626 0.3,-0.615 0.261,-0.592C0.222,-0.569 0.192,-0.537 0.17,-0.496C0.147,-0.454 0.136,-0.405 0.136,-0.349C0.136,-0.294 0.147,-0.245 0.17,-0.203C0.192,-0.161 0.223,-0.129 0.262,-0.106C0.301,-0.083 0.344,-0.072 0.393,-0.072Z" style="fill:white;fill-rule:nonzero;"/>
        </g>
    </g>
</svg>
